<?xml version="1.0" encoding="utf-8"?>
<!-- Generator: Adobe Illustrator 19.2.1, SVG Export Plug-In . SVG Version: 6.00 Build 0)  -->
<svg version="1.1" id="Layer_1" xmlns="http://www.w3.org/2000/svg" xmlns:xlink="http://www.w3.org/1999/xlink" x="0px" y="0px"
	 viewBox="0 0 793.7 1122.5" style="enable-background:new 0 0 793.7 1122.5;" xml:space="preserve">
<style type="text/css">
	.st0{fill:#454040;}
</style>
<title>search icon</title>
<g>
	<title>Layer 1</title>
	<path id="path12423" class="st0" d="M295.9,422.1c-43.3,43.3-43.4,114.2-0.1,157.4c36.7,36.7,93.2,42.3,135.9,16.8l76.3,74.2
		c10.5,10.2,27.1,9.8,37.1-0.8c10-10.7,9.8-27.4-0.7-37.6l-75.2-72.9c26.4-42.8,21-100-16-137.1C410,378.8,339.2,378.8,295.9,422.1
		L295.9,422.1z M327.7,453.8c26.1-26.1,67.7-26.1,93.8,0c26.1,26.1,26.1,67.7,0,93.8c-26.1,26.1-67.7,26.1-93.8,0
		C301.6,521.6,301.6,479.9,327.7,453.8z"/>
</g>
</svg>
