<?xml version="1.0" encoding="utf-8"?>
<!-- Generator: Adobe Illustrator 19.2.1, SVG Export Plug-In . SVG Version: 6.00 Build 0)  -->
<svg version="1.1" id="Layer_1" xmlns="http://www.w3.org/2000/svg" xmlns:xlink="http://www.w3.org/1999/xlink" x="0px" y="0px"
	 viewBox="0 0 1217 1213" style="enable-background:new 0 0 1217 1213;" xml:space="preserve">
<style type="text/css">
	.st0{fill:#919191;}
	.st1{fill:none;enable-background:new    ;}
</style>
<g>
	<path class="st0" d="M864.2,712.9c13.9,13.5,28,27.2,42.1,40.9c28.9,28.1,57.9,56.1,86.8,84.2c48,46.5,96,93,143.9,139.5
		c14.3,13.9,29.2,27.4,42.8,42c29.5,31.5,38,68.8,25.5,109.7c-12.8,41.6-41.5,68-84.5,76.1c-37,7-69.5-3.8-96.6-30.1
		c-65.5-63.6-130.8-127.3-196.3-191c-39-38-78.1-75.9-117.1-114c-2.5-2.4-4.1-2.6-7.2-0.9c-51.6,30.2-107,50.3-166.2,58
		c-145.8,19.1-274.6-19.1-383.7-118.5C79.6,741.4,32.6,657.3,14.9,558.8C-12.9,404.1,25.5,267,132.2,151
		C197.3,80.3,278.5,36.1,372.6,15.9C412.1,7.4,452,4.1,492.2,6.4c111.3,6.1,209,46,291,121.7c75.2,69.4,121.9,155,141,255.6
		c6.7,35.5,9.2,71.3,7.4,107.4c-3.8,77.7-25.3,150.2-65.4,217.1c-0.7,1.1-1.4,2.3-2,3.5C864.2,711.9,864.2,712.2,864.2,712.9z
		 M746.6,468.4c0-151.4-125.1-276.6-276.4-277c-149.6-0.4-277.9,122-277.9,277.5c0,154,126.5,276.3,275.4,276.9
		C621.3,746.4,746.6,621.3,746.6,468.4z"/>
</g>
<path class="st1" d="z"/>
</svg>
